# xmcd
#
# Track frame offsets:
#	182
#	26660
#	47742
#	58177
#	92290
#	110107
#	178950
#	230390
#	263120
#	289862
#	320487
#
# Disc length: 4721 seconds
#
# Revision: 1
# Processed by: cddbd v1.4PL0 Copyright (c) Steve Scherf et al.
# Submitted via: audiograbber 1.81.03
#
DISCID=9d126f0b
DTITLE=Albert King - Live In Canada
DYEAR=1995
DGENRE=Blues
TTITLE0=King's Groove (Instrumental)
TTITLE1=King's Jump (Instrumental)
TTITLE2=Water Melon Man (Instrumental)
TTITLE3=I'm Gonna Move To The Outskirts Of Town
TTITLE4=Kansas City
TTITLE5=Someday Baby
TTITLE6=Truckers Blues
TTITLE7=As The Years Go Passing By
TTITLE8=Rainin' In California
TTITLE9=I'll Play The Blues For You
TTITLE10=The Sky Is Crying
EXTD=Charly Blues Legends Live Vol. 6
EXTT0=
EXTT1=
EXTT2=
EXTT3=
EXTT4=
EXTT5=
EXTT6=
EXTT7=
EXTT8=
EXTT9=
EXTT10=
PLAYORDER=
